<svg width="44" height="50" viewBox="0 0 44 50" fill="none" xmlns="http://www.w3.org/2000/svg">
<path d="M43.0938 44.1406C43.0938 45.2193 42.2193 46.0938 41.1406 46.0938H39.1875V48.0469C39.1875 49.1256 38.3131 50 37.2344 50C36.1557 50 35.2812 49.1256 35.2812 48.0469V46.0938H33.3281C32.2494 46.0938 31.375 45.2193 31.375 44.1406C31.375 43.0619 32.2494 42.1875 33.3281 42.1875H35.2812V40.2344C35.2812 39.1557 36.1557 38.2812 37.2344 38.2812C38.3131 38.2812 39.1875 39.1557 39.1875 40.2344V42.1875H41.1406C42.2193 42.1875 43.0938 43.0619 43.0938 44.1406ZM43.0938 13.6719V32.4219C43.0938 33.5006 42.2193 34.375 41.1406 34.375C40.0619 34.375 39.1875 33.5006 39.1875 32.4219V15.625H35.2812V21.4844C35.2812 22.5631 34.4068 23.4375 33.3281 23.4375C32.2494 23.4375 31.375 22.5631 31.375 21.4844V15.625H12.625V21.4844C12.625 22.5631 11.7506 23.4375 10.6719 23.4375C9.59316 23.4375 8.71875 22.5631 8.71875 21.4844V15.625H4.8125V46.0938H25.5156C26.5943 46.0938 27.4688 46.9682 27.4688 48.0469C27.4688 49.1256 26.5943 50 25.5156 50H2.85938C1.78066 50 0.90625 49.1256 0.90625 48.0469V13.6719C0.90625 12.5932 1.78066 11.7188 2.85938 11.7188H8.81113C9.58701 5.1292 15.2054 0 22 0C28.7946 0 34.413 5.1292 35.1889 11.7188H41.1406C42.2193 11.7188 43.0938 12.5932 43.0938 13.6719ZM31.244 11.7188C30.4979 7.29053 26.637 3.90625 22 3.90625C17.363 3.90625 13.5021 7.29053 12.756 11.7188H31.244Z" fill="#2B463C"/>
</svg>
